<?xml version="1.0" encoding="utf-8"?>
<!-- Generator: Adobe Illustrator 16.0.0, SVG Export Plug-In . SVG Version: 6.00 Build 0)  -->
<!DOCTYPE svg PUBLIC "-//W3C//DTD SVG 1.1//EN" "http://www.w3.org/Graphics/SVG/1.1/DTD/svg11.dtd">
<svg version="1.1" id="Layer_1" xmlns="http://www.w3.org/2000/svg" xmlns:xlink="http://www.w3.org/1999/xlink" x="0px" y="0px"
	 width="1080px" height="1080px" viewBox="0 0 1080 1080" enable-background="new 0 0 1080 1080" xml:space="preserve">
<path fill-rule="evenodd" clip-rule="evenodd" fill="#6E6E6E" d="M153.645,40.283H930.16c56.352,0,102.398,46.051,102.398,102.291
	v776.508c0,56.24-46.047,102.289-102.398,102.289H153.645c-56.113,0-102.162-46.049-102.162-102.289V142.574
	C51.482,86.334,97.531,40.283,153.645,40.283"/>
<g id="Layer_1_89_">
	<path fill="#ECECEC" d="M768.518,688.715v-69.889c0-72.783-59.354-132.027-132.137-132.027c-31.121,0-56.467-25.338-56.467-56.578
		v-57.273c43.623-15.619,75.443-57.043,75.443-106.221c0-62.365-50.908-113.166-113.393-113.166
		c-62.133,0-113.283,50.801-113.283,113.166c0,49.178,31.824,90.602,75.793,106.221v57.273c0,31.24-25.455,56.578-56.695,56.578
		c-72.785,0-132.137,59.244-132.137,132.027v69.889c-43.857,15.73-75.328,57.045-75.328,106.215
		c0,62.371,50.676,113.166,113.049,113.166c62.598,0,113.273-50.795,113.273-113.166c0-49.17-31.705-90.484-75.438-106.215v-69.889
		c0-31.24,25.457-56.699,56.58-56.699c36.906,0,70.346-15.271,94.186-39.688c24.062,24.416,57.271,39.688,94.416,39.688
		c31.123,0,56.697,25.459,56.697,56.699v69.889c-43.967,15.73-75.326,57.045-75.326,106.215
		c0,62.371,50.447,113.166,112.818,113.166c62.48,0,113.275-50.795,113.275-113.166C843.846,745.76,812.021,704.445,768.518,688.715
		z M353.363,832.648c-20.83,0-37.721-17.008-37.721-37.719c0-20.828,16.891-37.719,37.721-37.719
		c20.938,0,37.836,16.891,37.836,37.719C391.199,815.641,374.301,832.648,353.363,832.648z M541.965,229.008
		c21.061,0,37.949,16.889,37.949,37.719s-16.889,37.719-37.949,37.719c-20.83,0-37.49-16.889-37.49-37.719
		S521.135,229.008,541.965,229.008z M730.57,832.648c-20.711,0-37.492-17.008-37.492-37.719c0-20.828,16.781-37.719,37.492-37.719
		c20.939,0,37.947,16.891,37.947,37.719C768.518,815.641,751.51,832.648,730.57,832.648z"/>
</g>
<g>
	<path fill="#6E6E6E" d="M931.5,40.096H656.489c0,209.966,168.865,381.076,376.235,381.076V142.396
		C1033.66,85.541,987.721,38.986,931.5,40.096z"/>
</g>
<g>
	<path fill="#ECECEC" d="M937.046,40.443H679.094c0,195.212,158.391,353.603,353.776,353.603V135.994
		C1032.87,83.364,989.779,40.27,937.046,40.443z"/>
</g>
<g>
	<path fill="#6E6E6E" d="M871.288,106.146c0-6.527,2.185-11.9,6.553-16.118c4.369-4.218,10.319-6.327,17.851-6.327
		c7.431,0,13.354,2.109,17.775,6.327c4.418,4.218,6.628,9.591,6.628,16.118c0,6.628-2.236,12.051-6.703,16.269
		c-4.47,4.218-10.371,6.327-17.7,6.327c-7.332,0-13.232-2.109-17.699-6.327C873.522,118.197,871.288,112.774,871.288,106.146z
		 M917.534,300.312H873.85V157.324h43.685V300.312z"/>
</g>
</svg>
