<?xml version="1.0" encoding="UTF-8" standalone="no"?>
<svg
   xmlns:dc="http://purl.org/dc/elements/1.1/"
   xmlns:cc="http://creativecommons.org/ns#"
   xmlns:rdf="http://www.w3.org/1999/02/22-rdf-syntax-ns#"
   xmlns:svg="http://www.w3.org/2000/svg"
   xmlns="http://www.w3.org/2000/svg"
   id="svg8"
   version="1.1"
   viewBox="0 0 285.75001 285.75001"
   height="1080"
   width="1080">
  <defs
     id="defs2">
    <marker
       orient="auto"
       refY="0"
       refX="0"
       id="Arrow1Mend"
       style="overflow:visible">
      <path
         id="path5322"
         d="M 0,0 5,-5 -12.5,0 5,5 Z"
         style="fill:#fa8f00;fill-opacity:1;fill-rule:evenodd;stroke:#fa8f00;stroke-width:1.00000003pt;stroke-opacity:1"
         transform="matrix(-0.4,0,0,-0.4,-4,0)" />
    </marker>
    <marker
       orient="auto"
       refY="0"
       refX="0"
       id="Arrow1Mend-4"
       style="overflow:visible">
      <path
         id="path5322-5"
         d="M 0,0 5,-5 -12.5,0 5,5 Z"
         style="fill:#fa8f00;fill-opacity:1;fill-rule:evenodd;stroke:#fa8f00;stroke-width:1.00000003pt;stroke-opacity:1"
         transform="matrix(-0.4,0,0,-0.4,-4,0)" />
    </marker>
  </defs>
  <metadata
     id="metadata5">
    <rdf:RDF>
      <cc:Work
         rdf:about="">
        <dc:format>image/svg+xml</dc:format>
        <dc:type
           rdf:resource="http://purl.org/dc/dcmitype/StillImage" />
        <dc:title></dc:title>
      </cc:Work>
    </rdf:RDF>
  </metadata>
  <rect
     y="-0.0035707499"
     x="0.0084436871"
     height="285.75"
     width="285.75"
     id="rect7624"
     style="fill:#c9ebfb;fill-opacity:1;stroke:none;stroke-width:18.2091732;stroke-linecap:round;stroke-miterlimit:4;stroke-dasharray:none;stroke-opacity:1;paint-order:markers stroke fill" />
  <g
     transform="matrix(1.4552084,0,0,1.4552084,353.40658,-315.79146)"
     id="g152" />
  <g
     transform="matrix(1.4552084,0,0,1.4552084,353.40658,-315.79146)"
     id="g154" />
  <g
     transform="matrix(1.4552084,0,0,1.4552084,353.40658,-315.79146)"
     id="g156" />
  <g
     transform="matrix(1.4552084,0,0,1.4552084,353.40658,-315.79146)"
     id="g158" />
  <g
     transform="matrix(1.4552084,0,0,1.4552084,353.40658,-315.79146)"
     id="g160" />
  <g
     transform="matrix(1.4552084,0,0,1.4552084,353.40658,-315.79146)"
     id="g162" />
  <g
     transform="matrix(1.4552084,0,0,1.4552084,353.40658,-315.79146)"
     id="g164" />
  <g
     transform="matrix(1.4552084,0,0,1.4552084,353.40658,-315.79146)"
     id="g166" />
  <g
     transform="matrix(1.4552084,0,0,1.4552084,353.40658,-315.79146)"
     id="g168" />
  <g
     transform="matrix(1.4552084,0,0,1.4552084,353.40658,-315.79146)"
     id="g170" />
  <g
     transform="matrix(1.4552084,0,0,1.4552084,353.40658,-315.79146)"
     id="g172" />
  <g
     transform="matrix(1.4552084,0,0,1.4552084,353.40658,-315.79146)"
     id="g174" />
  <g
     transform="matrix(1.4552084,0,0,1.4552084,353.40658,-315.79146)"
     id="g176" />
  <g
     transform="matrix(1.4552084,0,0,1.4552084,353.40658,-315.79146)"
     id="g178" />
  <g
     transform="matrix(1.4552084,0,0,1.4552084,353.40658,-315.79146)"
     id="g180" />
  <flowRoot
     transform="matrix(1.4552084,0,0,1.4552084,353.40658,-315.79146)"
     xml:space="preserve"
     id="flowRoot1041"
     style="font-style:normal;font-variant:normal;font-weight:500;font-stretch:normal;font-size:40px;line-height:1.25;font-family:Roboto;-inkscape-font-specification:'Roboto Medium';letter-spacing:0px;word-spacing:0px;fill:#000000;fill-opacity:1;stroke:none"><flowRegion
       id="flowRegion1043"><rect
         id="rect1045"
         width="3.9448078"
         height="40.43428"
         x="1147.9391"
         y="550.21259" /></flowRegion><flowPara
       id="flowPara1047" /></flowRoot>  <g
     id="g4220"
     transform="matrix(2.1166666,0,0,2.1166666,337.33047,15.256141)" />
  <g
     id="g4222"
     transform="matrix(2.1166666,0,0,2.1166666,337.33047,15.256141)" />
  <g
     id="g4224"
     transform="matrix(2.1166666,0,0,2.1166666,337.33047,15.256141)" />
  <g
     id="g4226"
     transform="matrix(2.1166666,0,0,2.1166666,337.33047,15.256141)" />
  <g
     id="g4228"
     transform="matrix(2.1166666,0,0,2.1166666,337.33047,15.256141)" />
  <g
     id="g4230"
     transform="matrix(2.1166666,0,0,2.1166666,337.33047,15.256141)" />
  <g
     id="g4232"
     transform="matrix(2.1166666,0,0,2.1166666,337.33047,15.256141)" />
  <g
     id="g4234"
     transform="matrix(2.1166666,0,0,2.1166666,337.33047,15.256141)" />
  <g
     id="g4236"
     transform="matrix(2.1166666,0,0,2.1166666,337.33047,15.256141)" />
  <g
     id="g4238"
     transform="matrix(2.1166666,0,0,2.1166666,337.33047,15.256141)" />
  <g
     id="g4240"
     transform="matrix(2.1166666,0,0,2.1166666,337.33047,15.256141)" />
  <g
     id="g4242"
     transform="matrix(2.1166666,0,0,2.1166666,337.33047,15.256141)" />
  <g
     id="g4244"
     transform="matrix(2.1166666,0,0,2.1166666,337.33047,15.256141)" />
  <g
     id="g4246"
     transform="matrix(2.1166666,0,0,2.1166666,337.33047,15.256141)" />
  <g
     id="g4248"
     transform="matrix(2.1166666,0,0,2.1166666,337.33047,15.256141)" />
  <g
     transform="matrix(3.7041666,0,0,3.7041666,306.29059,98.348938)"
     id="g4510" />
  <g
     transform="matrix(3.7041666,0,0,3.7041666,306.29059,98.348938)"
     id="g4512" />
  <g
     transform="matrix(3.7041666,0,0,3.7041666,306.29059,98.348938)"
     id="g4514" />
  <g
     transform="matrix(3.7041666,0,0,3.7041666,306.29059,98.348938)"
     id="g4516" />
  <g
     transform="matrix(3.7041666,0,0,3.7041666,306.29059,98.348938)"
     id="g4518" />
  <g
     transform="matrix(3.7041666,0,0,3.7041666,306.29059,98.348938)"
     id="g4520" />
  <g
     transform="matrix(3.7041666,0,0,3.7041666,306.29059,98.348938)"
     id="g4522" />
  <g
     transform="matrix(3.7041666,0,0,3.7041666,306.29059,98.348938)"
     id="g4524" />
  <g
     transform="matrix(3.7041666,0,0,3.7041666,306.29059,98.348938)"
     id="g4526" />
  <g
     transform="matrix(3.7041666,0,0,3.7041666,306.29059,98.348938)"
     id="g4528" />
  <g
     transform="matrix(3.7041666,0,0,3.7041666,306.29059,98.348938)"
     id="g4530" />
  <g
     transform="matrix(3.7041666,0,0,3.7041666,306.29059,98.348938)"
     id="g4532" />
  <g
     transform="matrix(3.7041666,0,0,3.7041666,306.29059,98.348938)"
     id="g4534" />
  <g
     transform="matrix(3.7041666,0,0,3.7041666,306.29059,98.348938)"
     id="g4536" />
  <g
     transform="matrix(3.7041666,0,0,3.7041666,306.29059,98.348938)"
     id="g4538" />
  <g
     id="g5408"
     transform="matrix(3.96875,0,0,3.96875,257.48733,88.070343)" />
  <g
     id="g5410"
     transform="matrix(3.96875,0,0,3.96875,257.48733,88.070343)" />
  <g
     id="g5412"
     transform="matrix(3.96875,0,0,3.96875,257.48733,88.070343)" />
  <g
     id="g5414"
     transform="matrix(3.96875,0,0,3.96875,257.48733,88.070343)" />
  <g
     id="g5416"
     transform="matrix(3.96875,0,0,3.96875,257.48733,88.070343)" />
  <g
     id="g5418"
     transform="matrix(3.96875,0,0,3.96875,257.48733,88.070343)" />
  <g
     id="g5420"
     transform="matrix(3.96875,0,0,3.96875,257.48733,88.070343)" />
  <g
     id="g5422"
     transform="matrix(3.96875,0,0,3.96875,257.48733,88.070343)" />
  <g
     id="g5424"
     transform="matrix(3.96875,0,0,3.96875,257.48733,88.070343)" />
  <g
     id="g5426"
     transform="matrix(3.96875,0,0,3.96875,257.48733,88.070343)" />
  <g
     id="g5428"
     transform="matrix(3.96875,0,0,3.96875,257.48733,88.070343)" />
  <g
     id="g5430"
     transform="matrix(3.96875,0,0,3.96875,257.48733,88.070343)" />
  <g
     id="g5432"
     transform="matrix(3.96875,0,0,3.96875,257.48733,88.070343)" />
  <g
     id="g5434"
     transform="matrix(3.96875,0,0,3.96875,257.48733,88.070343)" />
  <g
     id="g5436"
     transform="matrix(3.96875,0,0,3.96875,257.48733,88.070343)" />
  <g
     id="g12289"
     transform="matrix(0.26458333,0,0,0.26458333,363.59753,95.404054)" />
  <g
     id="g12291"
     transform="matrix(0.26458333,0,0,0.26458333,363.59753,95.404054)" />
  <g
     id="g12293"
     transform="matrix(0.26458333,0,0,0.26458333,363.59753,95.404054)" />
  <g
     id="g12295"
     transform="matrix(0.26458333,0,0,0.26458333,363.59753,95.404054)" />
  <g
     id="g12297"
     transform="matrix(0.26458333,0,0,0.26458333,363.59753,95.404054)" />
  <g
     id="g12299"
     transform="matrix(0.26458333,0,0,0.26458333,363.59753,95.404054)" />
  <g
     id="g12301"
     transform="matrix(0.26458333,0,0,0.26458333,363.59753,95.404054)" />
  <g
     id="g12303"
     transform="matrix(0.26458333,0,0,0.26458333,363.59753,95.404054)" />
  <g
     id="g12305"
     transform="matrix(0.26458333,0,0,0.26458333,363.59753,95.404054)" />
  <g
     id="g12307"
     transform="matrix(0.26458333,0,0,0.26458333,363.59753,95.404054)" />
  <g
     id="g12309"
     transform="matrix(0.26458333,0,0,0.26458333,363.59753,95.404054)" />
  <g
     id="g12311"
     transform="matrix(0.26458333,0,0,0.26458333,363.59753,95.404054)" />
  <g
     id="g12313"
     transform="matrix(0.26458333,0,0,0.26458333,363.59753,95.404054)" />
  <g
     id="g12315"
     transform="matrix(0.26458333,0,0,0.26458333,363.59753,95.404054)" />
  <g
     id="g12317"
     transform="matrix(0.26458333,0,0,0.26458333,363.59753,95.404054)" />
  <g
     style="fill:#294270;fill-opacity:1"
     id="g4444"
     transform="matrix(0.52916666,0,0,0.52916666,18.684059,19.242453)">
    <path
       style="fill:#294270;fill-opacity:1"
       id="path4446"
       d="m 460.517,270.846 c 0,9.194 -7.459,16.647 -16.654,16.647 -7.83,0 -14.357,-5.431 -16.136,-12.726 l -98.791,-14.236 c -2.533,9.231 -6.405,17.884 -11.466,25.732 l 49.207,31.164 c 5.48,-6.101 13.408,-9.962 22.262,-9.962 16.538,0 29.959,13.421 29.959,29.965 0,16.545 -13.415,29.965 -29.959,29.965 -16.551,0 -29.971,-13.408 -29.971,-29.965 0,-4.109 0.828,-8.025 2.332,-11.588 l -49.657,-31.443 c -12.337,15.271 -29.423,26.487 -48.987,31.596 l 8.859,54.797 c 11.588,0.401 20.874,9.87 20.874,21.556 0,11.952 -9.694,21.641 -21.641,21.641 -11.947,0 -21.641,-9.688 -21.641,-21.641 0,-8.708 5.182,-16.173 12.604,-19.607 l -8.842,-54.754 c -4.506,0.658 -9.073,1.12 -13.749,1.12 -12.659,0 -24.707,-2.575 -35.707,-7.148 l -39.623,107.51 c 2.408,2.271 3.93,5.479 3.93,9.048 0,6.894 -5.586,12.489 -12.486,12.489 -6.896,0 -12.482,-5.584 -12.482,-12.489 0,-6.601 5.139,-11.946 11.624,-12.397 l 39.987,-108.484 c -8.095,-4.444 -15.457,-10.047 -21.863,-16.599 l -61.58,44.975 c -0.137,8.146 -6.765,14.724 -14.952,14.724 -8.272,0 -14.976,-6.704 -14.976,-14.979 0,-8.275 6.704,-14.979 14.976,-14.979 4.622,0 8.705,2.144 11.448,5.432 l 58.501,-42.728 c -8.973,-11.387 -15.372,-24.881 -18.252,-39.658 l -91.252,8.549 C 54.83,276.5 42.85,287.484 28.303,287.484 12.672,287.481 0,274.816 0,259.191 c 0,-15.637 12.672,-28.309 28.303,-28.309 13.283,0 24.399,9.171 27.444,21.513 l 90.555,-8.506 c -0.226,-2.643 -0.405,-5.304 -0.405,-8.002 0,-18.438 5.422,-35.575 14.656,-50.043 l -20.134,-15.178 c -4.725,4.284 -10.936,6.96 -17.813,6.96 -14.708,0 -26.631,-11.922 -26.631,-26.631 0,-14.708 11.923,-26.631 26.631,-26.631 14.717,0 26.637,11.923 26.637,26.631 0,4.214 -1.072,8.147 -2.81,11.697 l 19.921,15.007 c 12.65,-15.798 30.342,-27.328 50.637,-32.285 L 198.345,39.215 c -7.082,-1.185 -12.489,-7.308 -12.489,-14.727 0,-8.275 6.704,-14.977 14.976,-14.977 8.275,0 14.979,6.701 14.979,14.977 0,5.586 -3.093,10.4 -7.633,12.981 l 18.624,106.113 c 4.037,-0.536 8.129,-0.911 12.306,-0.911 10.534,0 20.637,1.784 30.068,5.017 l 21.312,-59.421 c -2.412,-2.277 -3.934,-5.48 -3.934,-9.055 0,-6.896 5.59,-12.488 12.482,-12.488 6.899,0 12.482,5.587 12.482,12.488 0,6.604 -5.139,11.947 -11.618,12.398 l -21.445,59.82 c 14.419,6.765 26.853,17.092 36.12,29.886 l 66.408,-37.954 c -0.748,-2.326 -1.26,-4.771 -1.26,-7.347 0,-13.359 10.82,-24.186 24.186,-24.186 13.366,0 24.187,10.826 24.187,24.186 0,13.357 -10.82,24.184 -24.187,24.184 -7.179,0 -13.561,-3.188 -17.993,-8.157 l -65.902,37.662 c 7.794,13.624 12.318,29.368 12.318,46.183 0,5.072 -0.512,10.005 -1.291,14.864 l 97.347,14.017 c 2.442,-6.174 8.434,-10.57 15.473,-10.57 9.19,0 16.656,7.453 16.656,16.648 z" />
  </g>
  <g
     id="g4448"
     transform="matrix(0.26458333,0,0,0.26458333,310.14718,5.0929144)" />
  <g
     id="g4450"
     transform="matrix(0.26458333,0,0,0.26458333,310.14718,5.0929144)" />
  <g
     id="g4452"
     transform="matrix(0.26458333,0,0,0.26458333,310.14718,5.0929144)" />
  <g
     id="g4454"
     transform="matrix(0.26458333,0,0,0.26458333,310.14718,5.0929144)" />
  <g
     id="g4456"
     transform="matrix(0.26458333,0,0,0.26458333,310.14718,5.0929144)" />
  <g
     id="g4458"
     transform="matrix(0.26458333,0,0,0.26458333,310.14718,5.0929144)" />
  <g
     id="g4460"
     transform="matrix(0.26458333,0,0,0.26458333,310.14718,5.0929144)" />
  <g
     id="g4462"
     transform="matrix(0.26458333,0,0,0.26458333,310.14718,5.0929144)" />
  <g
     id="g4464"
     transform="matrix(0.26458333,0,0,0.26458333,310.14718,5.0929144)" />
  <g
     id="g4466"
     transform="matrix(0.26458333,0,0,0.26458333,310.14718,5.0929144)" />
  <g
     id="g4468"
     transform="matrix(0.26458333,0,0,0.26458333,310.14718,5.0929144)" />
  <g
     id="g4470"
     transform="matrix(0.26458333,0,0,0.26458333,310.14718,5.0929144)" />
  <g
     id="g4472"
     transform="matrix(0.26458333,0,0,0.26458333,310.14718,5.0929144)" />
  <g
     id="g4474"
     transform="matrix(0.26458333,0,0,0.26458333,310.14718,5.0929144)" />
  <g
     id="g4476"
     transform="matrix(0.26458333,0,0,0.26458333,310.14718,5.0929144)" />
</svg>
